<svg width="160" height="36" viewBox="0 0 160 36" fill="none" xmlns="http://www.w3.org/2000/svg">
<path d="M2.016 28.5V8.816H4.704L12.684 21.584H11.144L19.096 8.816H21.784V28.5H18.004V15.34L18.732 15.564L13.188 24.468H10.612L5.068 15.564L5.824 15.34V28.5H2.016ZM31.4611 28.78C30.2664 28.78 29.2024 28.528 28.2691 28.024C27.3544 27.52 26.6357 26.82 26.1131 25.924C25.5904 25.028 25.3291 23.992 25.3291 22.816V14.976H29.0251V22.732C29.0251 23.292 29.1184 23.7773 29.3051 24.188C29.4917 24.58 29.7717 24.8787 30.1451 25.084C30.5184 25.2893 30.9571 25.392 31.4611 25.392C32.2264 25.392 32.8237 25.1587 33.2531 24.692C33.6824 24.2253 33.8971 23.572 33.8971 22.732V14.976H37.5651V22.816C37.5651 24.0107 37.3037 25.056 36.7811 25.952C36.2771 26.848 35.5584 27.548 34.6251 28.052C33.7104 28.5373 32.6557 28.78 31.4611 28.78ZM49.866 28.5V20.744C49.866 19.9413 49.614 19.288 49.11 18.784C48.606 18.28 47.9527 18.028 47.15 18.028C46.6274 18.028 46.1607 18.14 45.75 18.364C45.3394 18.588 45.0127 18.9053 44.77 19.316C44.546 19.7267 44.434 20.2027 44.434 20.744L43.006 20.016C43.006 18.952 43.23 18.028 43.678 17.244C44.1447 16.4413 44.7794 15.816 45.582 15.368C46.4034 14.92 47.3274 14.696 48.354 14.696C49.3434 14.696 50.23 14.948 51.014 15.452C51.798 15.9373 52.414 16.5813 52.862 17.384C53.31 18.168 53.534 19.0173 53.534 19.932V28.5H49.866ZM40.766 28.5V14.976H44.434V28.5H40.766ZM63.1527 28.78C61.7714 28.78 60.53 28.472 59.4287 27.856C58.3274 27.24 57.4594 26.4 56.8247 25.336C56.19 24.272 55.8727 23.0773 55.8727 21.752C55.8727 20.408 56.19 19.204 56.8247 18.14C57.4594 17.076 58.3274 16.236 59.4287 15.62C60.5487 14.9853 61.79 14.668 63.1527 14.668C64.2167 14.668 65.1967 14.864 66.0927 15.256C66.9887 15.648 67.7634 16.208 68.4167 16.936L66.0647 19.316C65.71 18.924 65.2807 18.6253 64.7767 18.42C64.2914 18.2147 63.75 18.112 63.1527 18.112C62.4807 18.112 61.874 18.2707 61.3327 18.588C60.81 18.8867 60.39 19.3067 60.0727 19.848C59.774 20.3707 59.6247 20.996 59.6247 21.724C59.6247 22.4333 59.774 23.068 60.0727 23.628C60.39 24.1693 60.81 24.5987 61.3327 24.916C61.874 25.2147 62.4807 25.364 63.1527 25.364C63.7687 25.364 64.3194 25.2613 64.8047 25.056C65.3087 24.832 65.738 24.5147 66.0927 24.104L68.4727 26.484C67.782 27.2307 66.9887 27.8 66.0927 28.192C65.1967 28.584 64.2167 28.78 63.1527 28.78ZM79.9299 28.5V20.744C79.9299 19.9413 79.6779 19.288 79.1739 18.784C78.6699 18.28 78.0166 18.028 77.2139 18.028C76.6913 18.028 76.2246 18.14 75.8139 18.364C75.4033 18.588 75.0766 18.9053 74.8339 19.316C74.6099 19.7267 74.4979 20.2027 74.4979 20.744L73.0699 20.016C73.0699 18.952 73.2939 18.028 73.7419 17.244C74.1899 16.4413 74.8059 15.816 75.5899 15.368C76.3926 14.92 77.3073 14.696 78.3339 14.696C79.3606 14.696 80.2659 14.92 81.0499 15.368C81.8526 15.816 82.4779 16.432 82.9259 17.216C83.3739 18 83.5979 18.9053 83.5979 19.932V28.5H79.9299ZM70.8299 28.5V8.256H74.4979V28.5H70.8299ZM90.0246 21.192V18.084H94.5886C95.1859 18.084 95.7273 17.9627 96.2126 17.72C96.6979 17.4773 97.0806 17.132 97.3606 16.684C97.6406 16.2173 97.7806 15.6573 97.7806 15.004C97.7806 14.3693 97.6406 13.8187 97.3606 13.352C97.0806 12.8853 96.6979 12.5307 96.2126 12.288C95.7273 12.0453 95.1859 11.924 94.5886 11.924H90.0246V8.816H94.9806C96.2313 8.816 97.3513 9.068 98.3406 9.572C99.3486 10.076 100.142 10.7947 100.721 11.728C101.299 12.6427 101.589 13.7347 101.589 15.004C101.589 16.2733 101.299 17.3747 100.721 18.308C100.142 19.2227 99.3486 19.932 98.3406 20.436C97.3513 20.94 96.2313 21.192 94.9806 21.192H90.0246ZM87.2246 28.5V8.816H91.0326V28.5H87.2246ZM109.394 28.78C108.162 28.78 107.051 28.472 106.062 27.856C105.072 27.24 104.298 26.4 103.738 25.336C103.178 24.272 102.898 23.0773 102.898 21.752C102.898 20.408 103.178 19.204 103.738 18.14C104.298 17.076 105.072 16.236 106.062 15.62C107.051 15.004 108.162 14.696 109.394 14.696C110.364 14.696 111.232 14.892 111.998 15.284C112.763 15.676 113.37 16.2267 113.818 16.936C114.284 17.6267 114.536 18.4107 114.574 19.288V24.16C114.536 25.056 114.284 25.8493 113.818 26.54C113.37 27.2307 112.763 27.7813 111.998 28.192C111.232 28.584 110.364 28.78 109.394 28.78ZM110.066 25.392C111.092 25.392 111.923 25.056 112.558 24.384C113.192 23.6933 113.51 22.8067 113.51 21.724C113.51 21.0147 113.36 20.3893 113.062 19.848C112.782 19.288 112.38 18.8587 111.858 18.56C111.354 18.2427 110.756 18.084 110.066 18.084C109.394 18.084 108.796 18.2427 108.274 18.56C107.77 18.8587 107.368 19.288 107.07 19.848C106.79 20.3893 106.65 21.0147 106.65 21.724C106.65 22.452 106.79 23.096 107.07 23.656C107.368 24.1973 107.77 24.6267 108.274 24.944C108.796 25.2427 109.394 25.392 110.066 25.392ZM113.314 28.5V24.86L113.902 21.556L113.314 18.308V14.976H116.954V28.5H113.314ZM120.479 28.5V8.256H124.147V28.5H120.479Z" fill="white"/>
<path d="M159.849 6.00139L144.849 29.9986V14.2491L130 6.00139H159.849Z" fill="white"/>
</svg>
